<svg width="48" height="48" viewBox="0 0 48 48" fill="none" xmlns="http://www.w3.org/2000/svg">
<path d="M29.7578 1.57617C30.065 1.52263 30.3815 1.56994 30.6592 1.71191C30.9369 1.8539 31.1604 2.08285 31.2969 2.36328C31.4333 2.64358 31.4755 2.96063 31.416 3.2666L28.6592 17.0312L28.6484 17.083L28.6982 17.1016L39.5039 21.1533C39.7246 21.2371 39.9218 21.374 40.0771 21.5518C40.2325 21.7296 40.3412 21.9438 40.3945 22.1738C40.4477 22.4037 40.4441 22.6432 40.3828 22.8711C40.3215 23.0991 40.2044 23.3082 40.043 23.4805L39.9443 23.5859H39.9521L19.0508 45.9805C18.8376 46.208 18.5562 46.3604 18.249 46.4141C17.9418 46.4676 17.6253 46.4193 17.3477 46.2773C17.07 46.1354 16.8455 45.9074 16.709 45.627C16.5726 45.3467 16.5314 45.0296 16.5908 44.7236L19.3398 30.9736L19.3496 30.9219L19.2998 30.9033L8.49414 26.8457C8.27189 26.7625 8.07346 26.6257 7.91699 26.4473C7.76046 26.2687 7.65105 26.0536 7.59766 25.8223C7.54428 25.591 7.54889 25.3501 7.61133 25.1211C7.67377 24.8921 7.79174 24.682 7.95508 24.5098L7.95605 24.5088L28.9561 2.00977C29.1693 1.78217 29.4505 1.62974 29.7578 1.57617Z" fill="white"/>
<path d="M29.7578 1.57617C30.065 1.52263 30.3815 1.56994 30.6592 1.71191C30.9369 1.8539 31.1604 2.08285 31.2969 2.36328C31.4333 2.64358 31.4755 2.96063 31.416 3.2666L28.6592 17.0312L28.6484 17.083L28.6982 17.1016L39.5039 21.1533C39.7246 21.2371 39.9218 21.374 40.0771 21.5518C40.2325 21.7296 40.3412 21.9438 40.3945 22.1738C40.4477 22.4037 40.4441 22.6432 40.3828 22.8711C40.3215 23.0991 40.2044 23.3082 40.043 23.4805L39.9443 23.5859H39.9521L19.0508 45.9805C18.8376 46.208 18.5562 46.3604 18.249 46.4141C17.9418 46.4676 17.6253 46.4193 17.3477 46.2773C17.07 46.1354 16.8455 45.9074 16.709 45.627C16.5726 45.3467 16.5314 45.0296 16.5908 44.7236L19.3398 30.9736L19.3496 30.9219L19.2998 30.9033L8.49414 26.8457C8.27189 26.7625 8.07346 26.6257 7.91699 26.4473C7.76046 26.2687 7.65105 26.0536 7.59766 25.8223C7.54428 25.591 7.54889 25.3501 7.61133 25.1211C7.67377 24.8921 7.79174 24.682 7.95508 24.5098L7.95605 24.5088L28.9561 2.00977C29.1693 1.78217 29.4505 1.62974 29.7578 1.57617Z" fill="#E64103"/>
<path d="M29.7578 1.57617C30.065 1.52263 30.3815 1.56994 30.6592 1.71191C30.9369 1.8539 31.1604 2.08285 31.2969 2.36328C31.4333 2.64358 31.4755 2.96063 31.416 3.2666L28.6592 17.0312L28.6484 17.083L28.6982 17.1016L39.5039 21.1533C39.7246 21.2371 39.9218 21.374 40.0771 21.5518C40.2325 21.7296 40.3412 21.9438 40.3945 22.1738C40.4477 22.4037 40.4441 22.6432 40.3828 22.8711C40.3215 23.0991 40.2044 23.3082 40.043 23.4805L39.9443 23.5859H39.9521L19.0508 45.9805C18.8376 46.208 18.5562 46.3604 18.249 46.4141C17.9418 46.4676 17.6253 46.4193 17.3477 46.2773C17.07 46.1354 16.8455 45.9074 16.709 45.627C16.5726 45.3467 16.5314 45.0296 16.5908 44.7236L19.3398 30.9736L19.3496 30.9219L19.2998 30.9033L8.49414 26.8457C8.27189 26.7625 8.07346 26.6257 7.91699 26.4473C7.76046 26.2687 7.65105 26.0536 7.59766 25.8223C7.54428 25.591 7.54889 25.3501 7.61133 25.1211C7.67377 24.8921 7.79174 24.682 7.95508 24.5098L7.95605 24.5088L28.9561 2.00977C29.1693 1.78217 29.4505 1.62974 29.7578 1.57617Z" stroke="white" stroke-width="0.125"/>
<path d="M29.7578 1.57617C30.065 1.52263 30.3815 1.56994 30.6592 1.71191C30.9369 1.8539 31.1604 2.08285 31.2969 2.36328C31.4333 2.64358 31.4755 2.96063 31.416 3.2666L28.6592 17.0312L28.6484 17.083L28.6982 17.1016L39.5039 21.1533C39.7246 21.2371 39.9218 21.374 40.0771 21.5518C40.2325 21.7296 40.3412 21.9438 40.3945 22.1738C40.4477 22.4037 40.4441 22.6432 40.3828 22.8711C40.3215 23.0991 40.2044 23.3082 40.043 23.4805L39.9443 23.5859H39.9521L19.0508 45.9805C18.8376 46.208 18.5562 46.3604 18.249 46.4141C17.9418 46.4676 17.6253 46.4193 17.3477 46.2773C17.07 46.1354 16.8455 45.9074 16.709 45.627C16.5726 45.3467 16.5314 45.0296 16.5908 44.7236L19.3398 30.9736L19.3496 30.9219L19.2998 30.9033L8.49414 26.8457C8.27189 26.7625 8.07346 26.6257 7.91699 26.4473C7.76046 26.2687 7.65105 26.0536 7.59766 25.8223C7.54428 25.591 7.54889 25.3501 7.61133 25.1211C7.67377 24.8921 7.79174 24.682 7.95508 24.5098L7.95605 24.5088L28.9561 2.00977C29.1693 1.78217 29.4505 1.62974 29.7578 1.57617Z" stroke="#E64103" stroke-width="0.125"/>
</svg>
