<svg width="60" height="60" viewBox="0 0 60 60" fill="none" xmlns="http://www.w3.org/2000/svg">
<path d="M46.875 53.4375H3.84375C3.28125 53.4375 2.8125 52.9688 2.8125 52.4063V42.1875H3.75C5.34375 42.1875 6.5625 40.9688 6.5625 39.375C6.5625 37.7812 5.34375 36.5625 3.75 36.5625H2.8125V26.3438C2.8125 25.7813 3.28125 25.3125 3.84375 25.3125H9.375C9.9375 25.3125 10.3125 24.9375 10.3125 24.375C10.3125 23.8125 9.9375 23.4375 9.375 23.4375H3.84375C2.25 23.4375 0.9375 24.75 0.9375 26.3438V52.4063C0.9375 54 2.25 55.3125 3.84375 55.3125H46.875C47.4375 55.3125 47.8125 54.9375 47.8125 54.375C47.8125 53.8125 47.4375 53.4375 46.875 53.4375ZM2.8125 38.4375H3.75C4.3125 38.4375 4.6875 38.8125 4.6875 39.375C4.6875 39.9375 4.3125 40.3125 3.75 40.3125H2.8125V38.4375Z" fill="white"/>
<path d="M46.875 53.4375H3.84375C3.28125 53.4375 2.8125 52.9688 2.8125 52.4063V42.1875H3.75C5.34375 42.1875 6.5625 40.9688 6.5625 39.375C6.5625 37.7812 5.34375 36.5625 3.75 36.5625H2.8125V26.3438C2.8125 25.7813 3.28125 25.3125 3.84375 25.3125H9.375C9.9375 25.3125 10.3125 24.9375 10.3125 24.375C10.3125 23.8125 9.9375 23.4375 9.375 23.4375H3.84375C2.25 23.4375 0.9375 24.75 0.9375 26.3438V52.4063C0.9375 54 2.25 55.3125 3.84375 55.3125H46.875C47.4375 55.3125 47.8125 54.9375 47.8125 54.375C47.8125 53.8125 47.4375 53.4375 46.875 53.4375ZM2.8125 38.4375H3.75C4.3125 38.4375 4.6875 38.8125 4.6875 39.375C4.6875 39.9375 4.3125 40.3125 3.75 40.3125H2.8125V38.4375Z" fill="#E64103"/>
<path d="M52.5 53.4375H50.5312C49.9687 53.4375 49.5938 53.8125 49.5938 54.375C49.5938 54.9375 49.9687 55.3125 50.5312 55.3125H52.5C53.0625 55.3125 53.4375 54.9375 53.4375 54.375C53.4375 53.8125 53.0625 53.4375 52.5 53.4375Z" fill="white"/>
<path d="M52.5 53.4375H50.5312C49.9687 53.4375 49.5938 53.8125 49.5938 54.375C49.5938 54.9375 49.9687 55.3125 50.5312 55.3125H52.5C53.0625 55.3125 53.4375 54.9375 53.4375 54.375C53.4375 53.8125 53.0625 53.4375 52.5 53.4375Z" fill="#E64103"/>
<path d="M56.1562 23.4375H50.5312C49.9687 23.4375 49.5938 23.8125 49.5938 24.375C49.5938 24.9375 49.9687 25.3125 50.5312 25.3125H56.1562C56.7187 25.3125 57.1875 25.7813 57.1875 26.3438V52.4063C57.1875 52.9688 56.7187 53.4375 56.1562 53.4375C55.5937 53.4375 55.2187 53.8125 55.2187 54.375C55.2187 54.9375 55.5937 55.3125 56.1562 55.3125C57.75 55.3125 59.0625 54 59.0625 52.4063V26.3438C59.0625 24.75 57.75 23.4375 56.1562 23.4375Z" fill="white"/>
<path d="M56.1562 23.4375H50.5312C49.9687 23.4375 49.5938 23.8125 49.5938 24.375C49.5938 24.9375 49.9687 25.3125 50.5312 25.3125H56.1562C56.7187 25.3125 57.1875 25.7813 57.1875 26.3438V52.4063C57.1875 52.9688 56.7187 53.4375 56.1562 53.4375C55.5937 53.4375 55.2187 53.8125 55.2187 54.375C55.2187 54.9375 55.5937 55.3125 56.1562 55.3125C57.75 55.3125 59.0625 54 59.0625 52.4063V26.3438C59.0625 24.75 57.75 23.4375 56.1562 23.4375Z" fill="#E64103"/>
<path d="M47.5312 12.4688L40.0312 4.96875C39.8438 4.78125 39.6562 4.6875 39.375 4.6875H13.125C12.1875 4.6875 12.1875 5.625 12.1875 5.625V10.875C12.1875 11.4375 12.5625 11.8125 13.125 11.8125C13.6875 11.8125 14.0625 11.4375 14.0625 10.875V7.875L19.6875 13.5V35.25L14.0625 29.625V14.9062C14.0625 14.3438 13.6875 13.9688 13.125 13.9688C12.5625 13.9688 12.1875 14.3438 12.1875 14.9062V30C12.1875 30.2812 12.2813 30.4688 12.4688 30.6562L19.9687 38.1562C20.0625 38.25 20.3438 38.4375 20.625 38.4375H23.3438C23.9062 38.4375 24.2812 38.0625 24.2812 37.5C24.2812 36.9375 23.9062 36.5625 23.3438 36.5625H21.5625V14.0625H29.0625V20.625C29.0625 21 29.25 21.375 29.625 21.4688C30 21.6562 30.375 21.5625 30.6562 21.2812L33.75 18.1875L36.8438 21.2812C37.0312 21.4688 37.4063 21.75 37.875 21.4688C38.1563 21.2812 38.4375 21 38.4375 20.625V14.0625H45.9375V36.5625H44.0625C43.5 36.5625 43.125 36.9375 43.125 37.5C43.125 38.0625 43.5 38.4375 44.0625 38.4375H46.875C47.4375 38.4375 47.8125 38.0625 47.8125 37.5V13.125C47.8125 12.8438 47.625 12.5625 47.5312 12.4688ZM21 12.1875L15.375 6.5625H22.125L27.75 12.1875H21ZM36.5625 18.375L34.4062 16.2187C34.0312 15.8437 33.4688 15.8437 33.0938 16.2187L30.9375 18.375V13.125C30.9375 12.8438 30.75 12.5625 30.6562 12.4688L24.75 6.5625H29.625L36.5625 13.5V18.375ZM37.875 12.1875L32.25 6.5625H39L44.625 12.1875H37.875Z" fill="white"/>
<path d="M47.5312 12.4688L40.0312 4.96875C39.8438 4.78125 39.6562 4.6875 39.375 4.6875H13.125C12.1875 4.6875 12.1875 5.625 12.1875 5.625V10.875C12.1875 11.4375 12.5625 11.8125 13.125 11.8125C13.6875 11.8125 14.0625 11.4375 14.0625 10.875V7.875L19.6875 13.5V35.25L14.0625 29.625V14.9062C14.0625 14.3438 13.6875 13.9688 13.125 13.9688C12.5625 13.9688 12.1875 14.3438 12.1875 14.9062V30C12.1875 30.2812 12.2813 30.4688 12.4688 30.6562L19.9687 38.1562C20.0625 38.25 20.3438 38.4375 20.625 38.4375H23.3438C23.9062 38.4375 24.2812 38.0625 24.2812 37.5C24.2812 36.9375 23.9062 36.5625 23.3438 36.5625H21.5625V14.0625H29.0625V20.625C29.0625 21 29.25 21.375 29.625 21.4688C30 21.6562 30.375 21.5625 30.6562 21.2812L33.75 18.1875L36.8438 21.2812C37.0312 21.4688 37.4063 21.75 37.875 21.4688C38.1563 21.2812 38.4375 21 38.4375 20.625V14.0625H45.9375V36.5625H44.0625C43.5 36.5625 43.125 36.9375 43.125 37.5C43.125 38.0625 43.5 38.4375 44.0625 38.4375H46.875C47.4375 38.4375 47.8125 38.0625 47.8125 37.5V13.125C47.8125 12.8438 47.625 12.5625 47.5312 12.4688ZM21 12.1875L15.375 6.5625H22.125L27.75 12.1875H21ZM36.5625 18.375L34.4062 16.2187C34.0312 15.8437 33.4688 15.8437 33.0938 16.2187L30.9375 18.375V13.125C30.9375 12.8438 30.75 12.5625 30.6562 12.4688L24.75 6.5625H29.625L36.5625 13.5V18.375ZM37.875 12.1875L32.25 6.5625H39L44.625 12.1875H37.875Z" fill="#E64103"/>
<path d="M33.75 27.1875C29.0625 27.1875 25.3125 30.9375 25.3125 35.625C25.3125 43.4062 32.8125 51 33.0937 51.2812C33.2812 51.4688 33.8438 51.8438 34.4063 51.2812C34.7813 51 42.1875 43.4062 42.1875 35.625C42.1875 30.9375 38.4375 27.1875 33.75 27.1875ZM33.75 49.2187C31.9688 47.25 27.1875 41.3437 27.1875 35.625C27.1875 31.9687 30.0938 29.0625 33.75 29.0625C37.4062 29.0625 40.3125 31.9687 40.3125 35.625C40.3125 41.3437 35.5312 47.25 33.75 49.2187Z" fill="white"/>
<path d="M33.75 27.1875C29.0625 27.1875 25.3125 30.9375 25.3125 35.625C25.3125 43.4062 32.8125 51 33.0937 51.2812C33.2812 51.4688 33.8438 51.8438 34.4063 51.2812C34.7813 51 42.1875 43.4062 42.1875 35.625C42.1875 30.9375 38.4375 27.1875 33.75 27.1875ZM33.75 49.2187C31.9688 47.25 27.1875 41.3437 27.1875 35.625C27.1875 31.9687 30.0938 29.0625 33.75 29.0625C37.4062 29.0625 40.3125 31.9687 40.3125 35.625C40.3125 41.3437 35.5312 47.25 33.75 49.2187Z" fill="#E64103"/>
<path d="M36.5625 32.9062C36.0938 33.1875 36 33.75 36.1875 34.2188C36.4687 34.6875 36.5625 35.1562 36.5625 35.625C36.5625 37.2188 35.3438 38.4375 33.75 38.4375C32.1562 38.4375 30.9375 37.2188 30.9375 35.625C30.9375 34.0312 32.1562 32.8125 33.75 32.8125C34.3125 32.8125 34.6875 32.4375 34.6875 31.875C34.6875 31.3125 34.3125 30.9375 33.75 30.9375C31.125 30.9375 29.0625 33 29.0625 35.625C29.0625 38.25 31.125 40.3125 33.75 40.3125C36.375 40.3125 38.4375 38.25 38.4375 35.625C38.4375 34.7812 38.25 34.0312 37.7812 33.2812C37.5937 32.8125 36.9375 32.7187 36.5625 32.9062Z" fill="white"/>
<path d="M36.5625 32.9062C36.0938 33.1875 36 33.75 36.1875 34.2188C36.4687 34.6875 36.5625 35.1562 36.5625 35.625C36.5625 37.2188 35.3438 38.4375 33.75 38.4375C32.1562 38.4375 30.9375 37.2188 30.9375 35.625C30.9375 34.0312 32.1562 32.8125 33.75 32.8125C34.3125 32.8125 34.6875 32.4375 34.6875 31.875C34.6875 31.3125 34.3125 30.9375 33.75 30.9375C31.125 30.9375 29.0625 33 29.0625 35.625C29.0625 38.25 31.125 40.3125 33.75 40.3125C36.375 40.3125 38.4375 38.25 38.4375 35.625C38.4375 34.7812 38.25 34.0312 37.7812 33.2812C37.5937 32.8125 36.9375 32.7187 36.5625 32.9062Z" fill="#E64103"/>
<path d="M44.0625 16.875C44.0625 16.3125 43.6875 15.9375 43.125 15.9375H41.25C40.6875 15.9375 40.3125 16.3125 40.3125 16.875C40.3125 17.4375 40.6875 17.8125 41.25 17.8125H42.1875V18.75C42.1875 19.3125 42.5625 19.6875 43.125 19.6875C43.6875 19.6875 44.0625 19.3125 44.0625 18.75V16.875Z" fill="white"/>
<path d="M44.0625 16.875C44.0625 16.3125 43.6875 15.9375 43.125 15.9375H41.25C40.6875 15.9375 40.3125 16.3125 40.3125 16.875C40.3125 17.4375 40.6875 17.8125 41.25 17.8125H42.1875V18.75C42.1875 19.3125 42.5625 19.6875 43.125 19.6875C43.6875 19.6875 44.0625 19.3125 44.0625 18.75V16.875Z" fill="#E64103"/>
<path d="M43.125 21.5625C42.5625 21.5625 42.1875 21.9375 42.1875 22.5V24.375C42.1875 24.9375 42.5625 25.3125 43.125 25.3125C43.6875 25.3125 44.0625 24.9375 44.0625 24.375V22.5C44.0625 21.9375 43.6875 21.5625 43.125 21.5625Z" fill="white"/>
<path d="M43.125 21.5625C42.5625 21.5625 42.1875 21.9375 42.1875 22.5V24.375C42.1875 24.9375 42.5625 25.3125 43.125 25.3125C43.6875 25.3125 44.0625 24.9375 44.0625 24.375V22.5C44.0625 21.9375 43.6875 21.5625 43.125 21.5625Z" fill="#E64103"/>
<path d="M5.625 47.8125C5.0625 47.8125 4.6875 48.1875 4.6875 48.75V50.625C4.6875 51.1875 5.0625 51.5625 5.625 51.5625H9.375C9.9375 51.5625 10.3125 51.1875 10.3125 50.625C10.3125 50.0625 9.9375 49.6875 9.375 49.6875H6.5625V48.75C6.5625 48.1875 6.1875 47.8125 5.625 47.8125Z" fill="white"/>
<path d="M5.625 47.8125C5.0625 47.8125 4.6875 48.1875 4.6875 48.75V50.625C4.6875 51.1875 5.0625 51.5625 5.625 51.5625H9.375C9.9375 51.5625 10.3125 51.1875 10.3125 50.625C10.3125 50.0625 9.9375 49.6875 9.375 49.6875H6.5625V48.75C6.5625 48.1875 6.1875 47.8125 5.625 47.8125Z" fill="#E64103"/>
<path d="M15 51.5625C15.5625 51.5625 15.9375 51.1875 15.9375 50.625C15.9375 50.0625 15.5625 49.6875 15 49.6875H13.125C12.5625 49.6875 12.1875 50.0625 12.1875 50.625C12.1875 51.1875 12.5625 51.5625 13.125 51.5625H15Z" fill="white"/>
<path d="M15 51.5625C15.5625 51.5625 15.9375 51.1875 15.9375 50.625C15.9375 50.0625 15.5625 49.6875 15 49.6875H13.125C12.5625 49.6875 12.1875 50.0625 12.1875 50.625C12.1875 51.1875 12.5625 51.5625 13.125 51.5625H15Z" fill="#E64103"/>
<path d="M54.375 47.8125C54.8928 47.8125 55.3125 47.3928 55.3125 46.875C55.3125 46.3572 54.8928 45.9375 54.375 45.9375C53.8572 45.9375 53.4375 46.3572 53.4375 46.875C53.4375 47.3928 53.8572 47.8125 54.375 47.8125Z" fill="white"/>
<path d="M54.375 47.8125C54.8928 47.8125 55.3125 47.3928 55.3125 46.875C55.3125 46.3572 54.8928 45.9375 54.375 45.9375C53.8572 45.9375 53.4375 46.3572 53.4375 46.875C53.4375 47.3928 53.8572 47.8125 54.375 47.8125Z" fill="#E64103"/>
<path d="M54.375 40.3125C54.8928 40.3125 55.3125 39.8928 55.3125 39.375C55.3125 38.8572 54.8928 38.4375 54.375 38.4375C53.8572 38.4375 53.4375 38.8572 53.4375 39.375C53.4375 39.8928 53.8572 40.3125 54.375 40.3125Z" fill="white"/>
<path d="M54.375 40.3125C54.8928 40.3125 55.3125 39.8928 55.3125 39.375C55.3125 38.8572 54.8928 38.4375 54.375 38.4375C53.8572 38.4375 53.4375 38.8572 53.4375 39.375C53.4375 39.8928 53.8572 40.3125 54.375 40.3125Z" fill="#E64103"/>
<path d="M54.375 32.8125C54.8928 32.8125 55.3125 32.3928 55.3125 31.875C55.3125 31.3572 54.8928 30.9375 54.375 30.9375C53.8572 30.9375 53.4375 31.3572 53.4375 31.875C53.4375 32.3928 53.8572 32.8125 54.375 32.8125Z" fill="white"/>
<path d="M54.375 32.8125C54.8928 32.8125 55.3125 32.3928 55.3125 31.875C55.3125 31.3572 54.8928 30.9375 54.375 30.9375C53.8572 30.9375 53.4375 31.3572 53.4375 31.875C53.4375 32.3928 53.8572 32.8125 54.375 32.8125Z" fill="#E64103"/>
</svg>
