<svg width="36" height="36" viewBox="0 0 36 36" fill="none" xmlns="http://www.w3.org/2000/svg">
<path d="M17.5195 15.0107C13.7296 13.0904 11.0306 13.2395 9.3252 13.8164L9.29395 13.8262L9.28516 13.8574L9.22168 14.0713C8.85748 15.2757 8.83708 16.5581 9.16309 17.7734C9.48914 18.9889 10.1491 20.0887 11.0674 20.9492C12.9469 22.7091 15.4251 23.6884 18 23.6885C20.575 23.6885 23.0539 22.7093 24.9336 20.9492C26.173 19.7907 26.927 18.2053 27.043 16.5127L27.0488 16.4238L26.9639 16.4482C26.0981 16.6936 25.2016 16.8159 24.3018 16.8115L23.7988 16.7998C21.2947 16.6863 18.9861 15.7539 17.5195 15.0107ZM12.0469 4.48242L10.0205 11.3633L9.99219 11.459L10.0908 11.4424C12.1506 11.1017 14.9499 11.3267 18.4814 13.1143C19.4047 13.5819 20.7181 14.1439 22.1797 14.4531C23.6411 14.7624 25.2548 14.8196 26.7754 14.2744L26.8291 14.2549L26.8145 14.1992L26.7793 14.0713L23.9541 4.48242L23.9404 4.4375H12.0596L12.0469 4.48242ZM16.9375 25.7656L16.8809 25.7607C14.1643 25.5151 11.6078 24.3678 9.61816 22.502C8.41101 21.3733 7.54312 19.9297 7.11328 18.334C6.68344 16.7382 6.70862 15.054 7.18555 13.4717L10.2471 3.0752C10.3119 2.85521 10.4463 2.66182 10.6299 2.52441C10.7676 2.42133 10.9275 2.35354 11.0957 2.32617L11.2656 2.3125H24.7344L24.9053 2.32617C25.0733 2.35357 25.2334 2.42138 25.3711 2.52441C25.5546 2.66181 25.6891 2.85527 25.7539 3.0752L28.8145 13.4717H28.8154C29.2923 15.054 29.3166 16.7383 28.8867 18.334C28.4569 19.9296 27.5899 21.3733 26.3828 22.502C24.3931 24.3676 21.8365 25.5148 19.1201 25.7607L19.0625 25.7656V31.5625H23.625C23.9068 31.5625 24.1777 31.6748 24.377 31.874C24.576 32.0732 24.6875 32.3434 24.6875 32.625C24.6875 32.9066 24.576 33.1768 24.377 33.376C24.1777 33.5752 23.9068 33.6875 23.625 33.6875H12.375C12.0933 33.6874 11.8232 33.5752 11.624 33.376C11.4249 33.1767 11.3125 32.9067 11.3125 32.625C11.3125 32.3433 11.4249 32.0733 11.624 31.874C11.8232 31.6748 12.0933 31.5626 12.375 31.5625H16.9375V25.7656Z" fill="#C29254" stroke="#C29254" stroke-width="0.125"/>
</svg>
