<svg width="36" height="36" viewBox="0 0 36 36" fill="none" xmlns="http://www.w3.org/2000/svg">
<path d="M6.74414 13.5059C7.02794 16.2949 8.33596 18.8802 10.415 20.7607C12.3642 22.5237 14.8612 23.5505 17.4756 23.6748L18 23.6875C20.8033 23.6841 23.5059 22.6412 25.585 20.7607C27.664 18.8802 28.9721 16.2949 29.2559 13.5059L29.2627 13.4375H6.7373L6.74414 13.5059ZM8.2002 6.71875C7.39783 8.10605 6.90162 9.64927 6.74414 11.2441L6.7373 11.3125H29.2627L29.2559 11.2441C29.0984 9.64927 28.6022 8.10605 27.7998 6.71875L27.7812 6.6875H8.21875L8.2002 6.71875ZM16.9375 25.7695L16.8799 25.7646C13.5234 25.48 10.3959 23.9468 8.11523 21.4678C5.83451 18.9885 4.5666 15.7437 4.5625 12.375C4.55898 9.77227 5.31454 7.225 6.73633 5.04492C6.83286 4.8969 6.96474 4.77461 7.12012 4.69043C7.23656 4.62737 7.36351 4.58667 7.49414 4.57031L7.62598 4.5625H28.374C28.5506 4.56254 28.7246 4.60633 28.8799 4.69043C29.0353 4.77461 29.1671 4.8969 29.2637 5.04492C30.6855 7.225 31.441 9.77226 31.4375 12.375C31.4334 15.7437 30.1655 18.9885 27.8848 21.4678C25.6041 23.9468 22.4766 25.48 19.1201 25.7646L19.0625 25.7695V30.4375H23.625C23.9068 30.4375 24.1767 30.5498 24.376 30.749C24.5752 30.9483 24.6875 31.2182 24.6875 31.5C24.6875 31.7818 24.5752 32.0517 24.376 32.251C24.1767 32.4502 23.9068 32.5625 23.625 32.5625H12.375C12.0932 32.5625 11.8233 32.4502 11.624 32.251C11.4248 32.0517 11.3125 31.7818 11.3125 31.5C11.3125 31.2182 11.4248 30.9483 11.624 30.749C11.8233 30.5498 12.0932 30.4375 12.375 30.4375H16.9375V25.7695Z" fill="#C29254" stroke="#C29254" stroke-width="0.125"/>
</svg>
